# xmcd
#
# Track frame offsets: 
#        150
#        17422
#        35001
#        44227
#        58311
#        75713
#        89013
#        97391
#
# Disc length: 1493 seconds
#
# Revision: 0
# Processed by: cddbd v1.5.2PL0 Copyright (c) Steve Scherf et al.
# Submitted via: ExactAudioCopy v1.2
#
DISCID=7205d308
DTITLE=T. Nicks and Ken Eichler - Daddy Feels Good
DYEAR=2017
DGENRE=Blues
TTITLE0=Sorry Can't Say the Same
TTITLE1=When Love Turns to Sin
TTITLE2=Walkin' Shoes
TTITLE3=Shoot Me
TTITLE4=Half a Loaf
TTITLE5=Daddy Feels Good
TTITLE6=Round 'em Up
TTITLE7=Sister Mary
EXTD=
EXTT0=
EXTT1=
EXTT2=
EXTT3=
EXTT4=
EXTT5=
EXTT6=
EXTT7=
PLAYORDER=
